Coordinates
version=1
nRows=5
nColumns=63
inDegrees=yes

Units are S.I. units (second, meters, Newtons, ...)
If the header above contains a line with 'inDegrees', this indicates whether rotational values are in degrees (yes) or radians (no).

endheader
time	pelvis_tilt	pelvis_list	pelvis_rotation	pelvis_tx	pelvis_ty	pelvis_tz	hip_flexion_r	hip_adduction_r	hip_rotation_r	knee_angle_r	knee_angle_r_beta	ankle_angle_r	subtalar_angle_r	mtp_angle_r	hip_flexion_l	hip_adduction_l	hip_rotation_l	knee_angle_l	knee_angle_l_beta	ankle_angle_l	subtalar_angle_l	mtp_angle_l	L5_S1_Flex_Ext	L5_S1_Lat_Bending	L5_S1_axial_rotation	L4_L5_Flex_Ext	L4_L5_Lat_Bending	L4_L5_axial_rotation	L3_L4_Flex_Ext	L3_L4_Lat_Bending	L3_L4_axial_rotation	L2_L3_Flex_Ext	L2_L3_Lat_Bending	L2_L3_axial_rotation	L1_L2_Flex_Ext	L1_L2_Lat_Bending	L1_L2_axial_rotation	L1_T12_Flex_Ext	L1_T12_Lat_Bending	L1_T12_axial_rotation	Abs_r3	Abs_r2	Abs_r1	Abs_t1	Abs_t2	neck_flexion	neck_bending	neck_rotation	arm_flex_r	arm_add_r	arm_rot_r	elbow_flex_r	pro_sup_r	wrist_flex_r	wrist_dev_r	arm_flex_l	arm_add_l	arm_rot_l	elbow_flex_l	pro_sup_l	wrist_flex_l	wrist_dev_l
      0.00000000	     -0.69371315	     -4.62362170	     82.63689108	      0.01489264	      0.95040272	      0.52097781	     -0.15697781	     -0.11323328	      9.81804330	      3.78681195	      0.06609234	     20.83755260	      1.12651771	      0.00000000	     -1.22777434	     -1.24330666	      0.04171967	      1.73097717	      0.03021125	     22.03176938	     -8.48924885	      0.00000000	      0.02359137	     -0.04001836	      2.94264011	      0.04381153	     -0.05322442	      3.12655512	      0.03875826	     -0.09730065	      3.12655512	      0.02696257	     -0.09730065	      2.57481010	      0.02190694	     -0.08160545	      2.39089509	      0.01348011	     -0.06198844	      2.20698009	      0.16851077	     -0.45269573	     16.36608152	      0.00000000	      0.00000000	     22.51813633	     -2.13392983	    -12.55104894	     10.07894158	     -8.13643147	     70.08478776	     36.05872658	     88.18484619	     -2.69808084	      5.93286189	     18.79556249	     -6.42548983	     74.72328226	     50.05356963	     88.97787340	     24.20707936	     21.88643471
      0.01818182	     -0.57299331	     -4.72299441	     83.01281620	      0.01360416	      0.95057418	      0.52233580	      0.11973954	     -0.03292077	      8.87438465	      3.75179066	      0.06548110	     21.90073860	      1.44411040	      0.00000000	     -0.64861408	     -1.32377967	      0.28289764	      2.40053088	      0.04189717	     21.92318898	     -9.16144495	      0.00000000	      0.02223338	      0.01545995	      2.69876850	      0.04128960	      0.02056173	      2.86744153	      0.03652721	      0.03758932	      2.86744153	      0.02541052	      0.03758932	      2.36142243	      0.02064591	      0.03152593	      2.19274940	      0.01270415	      0.02394746	      2.02407637	      0.15881077	      0.17488605	     15.00974075	      0.00000000	      0.00000000	     22.37001385	     -2.37518196	    -10.35571157	      9.82665288	     -7.97203882	     67.55299347	     35.88986676	     87.54056188	     -2.82430388	      7.34666763	     17.07348143	     -6.63458142	     68.65552874	     50.98822264	     88.75575931	     19.63629563	     20.30625118
      0.03636364	     -0.51731385	     -4.80348073	     83.33479189	      0.01263794	      0.95071459	      0.52345533	      0.36275451	     -0.03386019	      7.63782688	      3.80570613	      0.06642210	     22.83408033	      2.72202339	      0.00000000	     -0.08738083	     -1.35498300	      0.21753317	      3.08713535	      0.05388068	     22.21044268	     -9.15139689	      0.00000000	      0.01455953	      0.05095282	      2.54182458	      0.02703851	      0.06776725	      2.70068862	      0.02391986	      0.12388668	      2.70068862	      0.01664009	      0.12388668	      2.22409651	      0.01351998	      0.10390299	      2.06523247	      0.00831932	      0.07892592	      1.90636844	      0.10399730	      0.57638848	     14.13686578	      0.00000000	      0.00000000	     22.47615721	     -2.36485115	     -8.57727525	      9.38996125	     -7.73943306	     64.76153526	     35.68277306	     85.93293976	     -2.15365466	      8.73145250	     16.23979171	     -6.68123582	     65.74873177	     51.64825106	     88.56680500	     15.72559918	     18.53145042
      0.05454545	     -0.50218339	     -4.92665745	     83.60383036	      0.01193377	      0.95084316	      0.52452241	      0.66553477	     -0.06777526	      6.25203999	      3.97658808	      0.06940456	     23.52451002	      4.48026737	      0.00000000	      0.52187832	     -1.38411093	     -0.47643458	      3.77347128	      0.06585950	     22.72967553	     -8.16202024	      0.00000000	      0.01304746	      0.06920530	      2.47637123	      0.02423044	      0.09204304	      2.63114443	      0.02143567	      0.16826575	      2.63114443	      0.01491194	      0.16826575	      2.16682483	      0.01211587	      0.14112344	      2.01205162	      0.00745532	      0.10719900	      1.85727842	      0.09319669	      0.78286414	     13.77283386	      0.00000000	      0.00000000	     22.57924809	     -2.48448424	     -7.87123635	      8.82705128	     -7.49910633	     62.13049027	     35.39582749	     82.64507439	     -1.37756720	      9.78917423	     16.05723996	     -6.63199882	     64.92992548	     51.93149253	     88.44763082	     12.93441159	     17.02361208
      0.07272727	     -0.52629354	     -5.00990729	     84.14550802	      0.01138372	      0.95101045	      0.52547513	      0.85253547	     -0.10341774	      5.01581392	      4.11954494	      0.07189962	     23.89259585	      5.67538140	      0.00000000	      1.18988627	     -1.43548464	     -1.55404802	      4.63125948	      0.08083073	     23.66654546	     -6.07838698	      0.00000000	      0.00440468	      0.06858035	      2.37685269	      0.00817994	      0.09121187	      2.52540598	      0.00723645	      0.16674627	      2.52540598	      0.00503411	      0.16674627	      2.07974610	      0.00409019	      0.13984905	      1.93119281	      0.00251684	      0.10623097	      1.78263952	      0.03146221	      0.77579466	     13.21934159	      0.00000000	      0.00000000	     22.74284197	     -2.48720173	     -7.58921077	      8.75595892	     -7.26418387	     61.60926338	     34.95757843	     78.86837306	     -1.40426813	      9.88832088	     16.24950370	     -6.77438179	     65.24568503	     52.14325337	     88.41529065	     11.23307599	     15.99182190
